<mxfile host="Electron" modified="2023-06-16T22:58:28.044Z" agent="Mozilla/5.0 (Windows NT 10.0; Win64; x64) AppleWebKit/537.36 (KHTML, like Gecko) draw.io/21.2.8 Chrome/112.0.5615.165 Electron/24.2.0 Safari/537.36" etag="SM_-8PZrhmwTt7adWr7W" version="21.2.8" type="device" pages="3">
  <diagram name="Page-1" id="XHVafjKkPT_VVWjJy-fI">
    <mxGraphModel dx="1036" dy="614" grid="0" gridSize="10" guides="1" tooltips="1" connect="1" arrows="1" fold="1" page="1" pageScale="1" pageWidth="850" pageHeight="1100" math="0" shadow="0">
      <root>
        <mxCell id="0" />
        <mxCell id="1" parent="0" />
        <mxCell id="6K99mim8rkfN3rPeOtf7-1" value="" style="rounded=1;whiteSpace=wrap;html=1;strokeWidth=5;fillColor=#82c402;strokeColor=#000000;" parent="1" vertex="1">
          <mxGeometry x="40" y="300" width="120" height="200" as="geometry" />
        </mxCell>
        <mxCell id="6K99mim8rkfN3rPeOtf7-2" value="" style="rounded=1;whiteSpace=wrap;html=1;strokeWidth=4;fillColor=#000000;" parent="1" vertex="1">
          <mxGeometry x="70" y="280" width="60" height="20" as="geometry" />
        </mxCell>
        <mxCell id="6K99mim8rkfN3rPeOtf7-4" value="" style="rounded=1;whiteSpace=wrap;html=1;strokeWidth=5;fillColor=#fbff0a;strokeColor=#000000;" parent="1" vertex="1">
          <mxGeometry x="400" y="300" width="120" height="200" as="geometry" />
        </mxCell>
        <mxCell id="6K99mim8rkfN3rPeOtf7-5" value="" style="rounded=1;whiteSpace=wrap;html=1;strokeWidth=4;fillColor=#000000;" parent="1" vertex="1">
          <mxGeometry x="430" y="280" width="60" height="20" as="geometry" />
        </mxCell>
        <mxCell id="6K99mim8rkfN3rPeOtf7-6" value="" style="rounded=1;whiteSpace=wrap;html=1;strokeWidth=5;fillColor=#d3eb24;strokeColor=#000000;" parent="1" vertex="1">
          <mxGeometry x="220" y="300" width="120" height="200" as="geometry" />
        </mxCell>
        <mxCell id="6K99mim8rkfN3rPeOtf7-7" value="" style="rounded=1;whiteSpace=wrap;html=1;strokeWidth=4;fillColor=#000000;" parent="1" vertex="1">
          <mxGeometry x="250" y="280" width="60" height="20" as="geometry" />
        </mxCell>
        <mxCell id="6K99mim8rkfN3rPeOtf7-10" value="" style="rounded=1;whiteSpace=wrap;html=1;strokeWidth=5;fillColor=#f6ae13;strokeColor=#000000;" parent="1" vertex="1">
          <mxGeometry x="580" y="300" width="120" height="200" as="geometry" />
        </mxCell>
        <mxCell id="6K99mim8rkfN3rPeOtf7-11" value="" style="rounded=1;whiteSpace=wrap;html=1;strokeWidth=4;fillColor=#000000;" parent="1" vertex="1">
          <mxGeometry x="610" y="280" width="60" height="20" as="geometry" />
        </mxCell>
        <mxCell id="6K99mim8rkfN3rPeOtf7-12" value="" style="rounded=1;whiteSpace=wrap;html=1;strokeWidth=5;fillColor=#EB0C0C;strokeColor=#000000;" parent="1" vertex="1">
          <mxGeometry x="760" y="300" width="120" height="200" as="geometry" />
        </mxCell>
        <mxCell id="6K99mim8rkfN3rPeOtf7-13" value="" style="rounded=1;whiteSpace=wrap;html=1;strokeWidth=4;fillColor=#000000;" parent="1" vertex="1">
          <mxGeometry x="790" y="280" width="60" height="20" as="geometry" />
        </mxCell>
        <mxCell id="6K99mim8rkfN3rPeOtf7-14" value="" style="rounded=1;whiteSpace=wrap;html=1;strokeWidth=5;fillColor=#b4dc02;strokeColor=#000000;" parent="1" vertex="1">
          <mxGeometry x="120" y="550" width="120" height="200" as="geometry" />
        </mxCell>
        <mxCell id="6K99mim8rkfN3rPeOtf7-15" value="" style="rounded=1;whiteSpace=wrap;html=1;strokeWidth=4;fillColor=#000000;" parent="1" vertex="1">
          <mxGeometry x="150" y="530" width="60" height="20" as="geometry" />
        </mxCell>
        <mxCell id="6K99mim8rkfN3rPeOtf7-16" value="" style="rounded=1;whiteSpace=wrap;html=1;strokeWidth=5;fillColor=#fbe60a;strokeColor=#000000;" parent="1" vertex="1">
          <mxGeometry x="440" y="550" width="120" height="200" as="geometry" />
        </mxCell>
        <mxCell id="6K99mim8rkfN3rPeOtf7-17" value="" style="rounded=1;whiteSpace=wrap;html=1;strokeWidth=4;fillColor=#000000;" parent="1" vertex="1">
          <mxGeometry x="470" y="530" width="60" height="20" as="geometry" />
        </mxCell>
        <mxCell id="6K99mim8rkfN3rPeOtf7-18" value="" style="rounded=1;whiteSpace=wrap;html=1;strokeWidth=5;fillColor=#f68213;strokeColor=#000000;" parent="1" vertex="1">
          <mxGeometry x="600" y="550" width="120" height="200" as="geometry" />
        </mxCell>
        <mxCell id="6K99mim8rkfN3rPeOtf7-19" value="" style="rounded=1;whiteSpace=wrap;html=1;strokeWidth=4;fillColor=#000000;" parent="1" vertex="1">
          <mxGeometry x="630" y="530" width="60" height="20" as="geometry" />
        </mxCell>
        <mxCell id="6K99mim8rkfN3rPeOtf7-20" value="" style="endArrow=none;dashed=1;html=1;rounded=0;" parent="1" edge="1">
          <mxGeometry width="50" height="50" relative="1" as="geometry">
            <mxPoint x="10" y="270" as="sourcePoint" />
            <mxPoint x="910" y="270" as="targetPoint" />
          </mxGeometry>
        </mxCell>
        <mxCell id="6K99mim8rkfN3rPeOtf7-21" value="" style="endArrow=none;dashed=1;html=1;dashPattern=1 3;strokeWidth=2;rounded=0;" parent="1" edge="1">
          <mxGeometry width="50" height="50" relative="1" as="geometry">
            <mxPoint x="10" y="510" as="sourcePoint" />
            <mxPoint x="10" y="270" as="targetPoint" />
          </mxGeometry>
        </mxCell>
        <mxCell id="6K99mim8rkfN3rPeOtf7-22" value="" style="endArrow=none;dashed=1;html=1;dashPattern=1 3;strokeWidth=2;rounded=0;" parent="1" edge="1">
          <mxGeometry width="50" height="50" relative="1" as="geometry">
            <mxPoint x="10" y="510" as="sourcePoint" />
            <mxPoint x="910" y="510" as="targetPoint" />
          </mxGeometry>
        </mxCell>
        <mxCell id="6K99mim8rkfN3rPeOtf7-23" value="" style="endArrow=none;dashed=1;html=1;rounded=0;" parent="1" edge="1">
          <mxGeometry width="50" height="50" relative="1" as="geometry">
            <mxPoint x="910" y="510" as="sourcePoint" />
            <mxPoint x="910" y="270" as="targetPoint" />
          </mxGeometry>
        </mxCell>
        <mxCell id="6K99mim8rkfN3rPeOtf7-24" value="" style="endArrow=none;dashed=1;html=1;dashPattern=1 3;strokeWidth=2;rounded=0;" parent="1" edge="1">
          <mxGeometry width="50" height="50" relative="1" as="geometry">
            <mxPoint x="190" y="510" as="sourcePoint" />
            <mxPoint x="190" y="270" as="targetPoint" />
          </mxGeometry>
        </mxCell>
        <mxCell id="6K99mim8rkfN3rPeOtf7-25" value="" style="endArrow=none;dashed=1;html=1;dashPattern=1 3;strokeWidth=2;rounded=0;" parent="1" edge="1">
          <mxGeometry width="50" height="50" relative="1" as="geometry">
            <mxPoint x="370" y="510" as="sourcePoint" />
            <mxPoint x="370" y="270" as="targetPoint" />
          </mxGeometry>
        </mxCell>
        <mxCell id="6K99mim8rkfN3rPeOtf7-26" value="" style="endArrow=none;dashed=1;html=1;dashPattern=1 3;strokeWidth=2;rounded=0;" parent="1" edge="1">
          <mxGeometry width="50" height="50" relative="1" as="geometry">
            <mxPoint x="550" y="510" as="sourcePoint" />
            <mxPoint x="550" y="270" as="targetPoint" />
          </mxGeometry>
        </mxCell>
        <mxCell id="6K99mim8rkfN3rPeOtf7-27" value="" style="endArrow=none;dashed=1;html=1;dashPattern=1 3;strokeWidth=2;rounded=0;" parent="1" edge="1">
          <mxGeometry width="50" height="50" relative="1" as="geometry">
            <mxPoint x="730" y="510" as="sourcePoint" />
            <mxPoint x="730" y="270" as="targetPoint" />
          </mxGeometry>
        </mxCell>
      </root>
    </mxGraphModel>
  </diagram>
  <diagram id="lQzQr5pMPaChPdg_7r0u" name="Page-2">
    <mxGraphModel dx="1443" dy="351" grid="1" gridSize="10" guides="1" tooltips="1" connect="1" arrows="1" fold="1" page="1" pageScale="1" pageWidth="850" pageHeight="1100" math="0" shadow="0">
      <root>
        <mxCell id="0" />
        <mxCell id="1" parent="0" />
        <mxCell id="S4Wu4qtCutzfjn-QbG35-14" value="" style="edgeStyle=orthogonalEdgeStyle;rounded=0;orthogonalLoop=1;jettySize=auto;html=1;endArrow=none;endFill=0;strokeWidth=3;fillColor=none;strokeColor=none;" edge="1" parent="1">
          <mxGeometry relative="1" as="geometry">
            <mxPoint x="260" y="707.0303030303032" as="sourcePoint" />
            <mxPoint x="290" y="707.0303030303032" as="targetPoint" />
          </mxGeometry>
        </mxCell>
        <mxCell id="S4Wu4qtCutzfjn-QbG35-15" value="" style="edgeStyle=orthogonalEdgeStyle;rounded=0;orthogonalLoop=1;jettySize=auto;html=1;endArrow=none;endFill=0;strokeWidth=3;fillColor=none;strokeColor=none;" edge="1" parent="1">
          <mxGeometry relative="1" as="geometry">
            <mxPoint x="410" y="707.0303030303032" as="sourcePoint" />
            <mxPoint x="440" y="707.0303030303032" as="targetPoint" />
          </mxGeometry>
        </mxCell>
        <mxCell id="S4Wu4qtCutzfjn-QbG35-16" value="" style="edgeStyle=orthogonalEdgeStyle;rounded=0;orthogonalLoop=1;jettySize=auto;html=1;endArrow=none;endFill=0;strokeWidth=3;fillColor=none;strokeColor=none;" edge="1" parent="1">
          <mxGeometry relative="1" as="geometry">
            <mxPoint x="560" y="707.0303030303032" as="sourcePoint" />
            <mxPoint x="590" y="707" as="targetPoint" />
          </mxGeometry>
        </mxCell>
        <mxCell id="S4Wu4qtCutzfjn-QbG35-17" value="" style="edgeStyle=orthogonalEdgeStyle;rounded=0;orthogonalLoop=1;jettySize=auto;html=1;endArrow=none;endFill=0;strokeWidth=3;entryX=0;entryY=0.5;entryDx=0;entryDy=0;strokeColor=default;" edge="1" parent="1" target="fCGRCVeAQ8SIsaAUN3f5-19">
          <mxGeometry relative="1" as="geometry">
            <mxPoint x="170" y="707" as="sourcePoint" />
            <mxPoint x="770" y="707" as="targetPoint" />
          </mxGeometry>
        </mxCell>
        <mxCell id="S4Wu4qtCutzfjn-QbG35-13" value="" style="edgeStyle=orthogonalEdgeStyle;rounded=0;orthogonalLoop=1;jettySize=auto;html=1;endArrow=none;endFill=0;strokeWidth=3;fillColor=none;strokeColor=none;" edge="1" parent="1">
          <mxGeometry relative="1" as="geometry">
            <mxPoint x="110" y="707.0526315789475" as="sourcePoint" />
            <mxPoint x="140" y="707.0303030303032" as="targetPoint" />
          </mxGeometry>
        </mxCell>
        <mxCell id="S4Wu4qtCutzfjn-QbG35-21" style="edgeStyle=orthogonalEdgeStyle;rounded=0;orthogonalLoop=1;jettySize=auto;html=1;endArrow=none;endFill=0;strokeWidth=3;" edge="1" parent="1">
          <mxGeometry relative="1" as="geometry">
            <mxPoint x="170" y="707" as="sourcePoint" />
            <mxPoint x="380" y="840" as="targetPoint" />
            <Array as="points">
              <mxPoint y="707" />
              <mxPoint y="830" />
              <mxPoint x="380" y="830" />
            </Array>
          </mxGeometry>
        </mxCell>
        <mxCell id="S4Wu4qtCutzfjn-QbG35-25" value="" style="endArrow=none;html=1;rounded=0;strokeWidth=3;" edge="1" parent="1">
          <mxGeometry width="50" height="50" relative="1" as="geometry">
            <mxPoint x="350" y="840" as="sourcePoint" />
            <mxPoint x="410" y="840" as="targetPoint" />
          </mxGeometry>
        </mxCell>
        <mxCell id="S4Wu4qtCutzfjn-QbG35-26" value="" style="endArrow=none;html=1;rounded=0;strokeWidth=3;" edge="1" parent="1">
          <mxGeometry width="50" height="50" relative="1" as="geometry">
            <mxPoint x="360" y="850" as="sourcePoint" />
            <mxPoint x="400" y="850" as="targetPoint" />
          </mxGeometry>
        </mxCell>
        <mxCell id="S4Wu4qtCutzfjn-QbG35-27" value="" style="endArrow=none;html=1;rounded=0;strokeWidth=3;" edge="1" parent="1">
          <mxGeometry width="50" height="50" relative="1" as="geometry">
            <mxPoint x="370" y="860" as="sourcePoint" />
            <mxPoint x="390" y="860" as="targetPoint" />
          </mxGeometry>
        </mxCell>
        <mxCell id="S4Wu4qtCutzfjn-QbG35-28" value="" style="endArrow=none;html=1;rounded=0;strokeWidth=3;" edge="1" parent="1">
          <mxGeometry width="50" height="50" relative="1" as="geometry">
            <mxPoint x="375" y="870" as="sourcePoint" />
            <mxPoint x="385" y="870" as="targetPoint" />
          </mxGeometry>
        </mxCell>
        <mxCell id="fCGRCVeAQ8SIsaAUN3f5-5" value="" style="rounded=1;whiteSpace=wrap;html=1;strokeWidth=0;fillColor=none;rotation=0;strokeColor=none;" vertex="1" parent="1">
          <mxGeometry x="60" y="600" width="60" height="20" as="geometry" />
        </mxCell>
        <mxCell id="fCGRCVeAQ8SIsaAUN3f5-6" value="" style="rounded=1;whiteSpace=wrap;html=1;strokeWidth=0;fillColor=none;rotation=0;strokeColor=none;" vertex="1" parent="1">
          <mxGeometry x="30" y="617" width="120" height="180" as="geometry" />
        </mxCell>
        <mxCell id="fCGRCVeAQ8SIsaAUN3f5-7" value="" style="rounded=1;whiteSpace=wrap;html=1;strokeWidth=0;fillColor=none;rotation=0;strokeColor=none;" vertex="1" parent="1">
          <mxGeometry x="210" y="600" width="60" height="20" as="geometry" />
        </mxCell>
        <mxCell id="fCGRCVeAQ8SIsaAUN3f5-8" value="" style="rounded=1;whiteSpace=wrap;html=1;strokeWidth=0;fillColor=none;rotation=0;strokeColor=none;" vertex="1" parent="1">
          <mxGeometry x="180" y="617" width="120" height="180" as="geometry" />
        </mxCell>
        <mxCell id="fCGRCVeAQ8SIsaAUN3f5-9" value="" style="rounded=1;whiteSpace=wrap;html=1;strokeWidth=0;fillColor=none;rotation=0;strokeColor=none;" vertex="1" parent="1">
          <mxGeometry x="360" y="600" width="60" height="20" as="geometry" />
        </mxCell>
        <mxCell id="fCGRCVeAQ8SIsaAUN3f5-10" value="" style="rounded=1;whiteSpace=wrap;html=1;strokeWidth=0;fillColor=none;rotation=0;strokeColor=none;" vertex="1" parent="1">
          <mxGeometry x="330" y="617" width="120" height="180" as="geometry" />
        </mxCell>
        <mxCell id="fCGRCVeAQ8SIsaAUN3f5-14" value="" style="rounded=1;whiteSpace=wrap;html=1;strokeWidth=0;fillColor=none;rotation=0;strokeColor=none;" vertex="1" parent="1">
          <mxGeometry x="510" y="600" width="60" height="20" as="geometry" />
        </mxCell>
        <mxCell id="fCGRCVeAQ8SIsaAUN3f5-15" value="" style="rounded=1;whiteSpace=wrap;html=1;strokeWidth=0;fillColor=none;rotation=0;strokeColor=none;" vertex="1" parent="1">
          <mxGeometry x="480" y="617" width="120" height="180" as="geometry" />
        </mxCell>
        <mxCell id="fCGRCVeAQ8SIsaAUN3f5-16" value="" style="rounded=1;whiteSpace=wrap;html=1;strokeWidth=0;fillColor=none;rotation=0;strokeColor=none;" vertex="1" parent="1">
          <mxGeometry x="660" y="600" width="60" height="20" as="geometry" />
        </mxCell>
        <mxCell id="fCGRCVeAQ8SIsaAUN3f5-17" value="" style="rounded=1;whiteSpace=wrap;html=1;strokeWidth=0;fillColor=none;rotation=0;strokeColor=none;" vertex="1" parent="1">
          <mxGeometry x="630" y="617" width="120" height="180" as="geometry" />
        </mxCell>
        <mxCell id="fCGRCVeAQ8SIsaAUN3f5-18" value="" style="rounded=1;whiteSpace=wrap;html=1;strokeWidth=0;fillColor=none;rotation=0;strokeColor=none;" vertex="1" parent="1">
          <mxGeometry x="810" y="600" width="60" height="20" as="geometry" />
        </mxCell>
        <mxCell id="fCGRCVeAQ8SIsaAUN3f5-19" value="" style="rounded=1;whiteSpace=wrap;html=1;strokeWidth=0;fillColor=none;rotation=0;strokeColor=none;" vertex="1" parent="1">
          <mxGeometry x="780" y="617" width="120" height="180" as="geometry" />
        </mxCell>
      </root>
    </mxGraphModel>
  </diagram>
  <diagram id="W0rKrKnhfMGaf5mWChMv" name="Page-3">
    <mxGraphModel dx="1036" dy="614" grid="1" gridSize="10" guides="1" tooltips="1" connect="1" arrows="1" fold="1" page="1" pageScale="1" pageWidth="850" pageHeight="1100" math="0" shadow="0">
      <root>
        <mxCell id="0" />
        <mxCell id="1" parent="0" />
        <mxCell id="2J9tGUhHMZtwZSZ47ns5-1" value="" style="rounded=1;whiteSpace=wrap;html=1;strokeWidth=0;fillColor=#EB0C0C;rotation=90;" vertex="1" parent="1">
          <mxGeometry x="470" y="680" width="60" height="20" as="geometry" />
        </mxCell>
        <mxCell id="2J9tGUhHMZtwZSZ47ns5-2" value="" style="rounded=1;whiteSpace=wrap;html=1;strokeWidth=0;fillColor=#EB0C0C;strokeColor=none;rotation=90;" vertex="1" parent="1">
          <mxGeometry x="350" y="600" width="120" height="180" as="geometry" />
        </mxCell>
      </root>
    </mxGraphModel>
  </diagram>
</mxfile>
